<?xml version="1.0" encoding="UTF-8" ?>
<!DOCTYPE svg PUBLIC "-//W3C//DTD SVG 1.1//EN" "http://www.w3.org/Graphics/SVG/1.1/DTD/svg11.dtd">
<svg width="600pt" height="600pt" viewBox="0 0 600 600" version="1.1" xmlns="http://www.w3.org/2000/svg">
<path fill="#fefefe" d=" M 0.00 0.00 L 600.00 0.00 L 600.00 600.00 L 0.00 600.00 L 0.00 0.00 Z" />
<path fill="#6c1d37" d=" M 275.55 71.85 C 340.38 67.06 407.13 83.38 461.00 120.14 C 497.36 144.80 527.72 178.87 545.93 219.01 C 564.15 258.71 569.80 304.17 561.08 347.03 C 553.57 385.56 534.82 421.55 508.84 450.86 C 484.85 478.05 454.85 499.73 421.98 514.95 C 334.49 555.56 226.78 550.35 144.46 499.63 C 99.29 472.01 62.04 430.26 43.42 380.37 C 34.52 356.98 30.13 331.97 29.80 306.98 C 30.02 285.55 33.09 264.10 39.60 243.66 C 51.37 206.10 73.72 172.18 102.44 145.40 C 149.15 101.52 211.88 76.23 275.55 71.85 Z" />
<path fill="#fefefe" d=" M 261.42 184.59 C 277.47 179.82 294.53 179.03 311.11 180.85 C 330.47 182.84 349.59 191.91 361.66 207.46 C 371.29 219.62 375.56 235.18 376.76 250.43 C 368.13 250.43 359.51 250.44 350.89 250.42 C 349.84 235.69 342.74 221.12 330.43 212.62 C 316.28 202.54 297.86 200.81 281.10 203.40 C 269.01 205.09 256.50 209.89 248.88 219.88 C 242.50 227.24 241.31 237.71 242.75 247.02 C 244.28 257.23 251.73 265.37 260.03 270.91 C 275.82 281.09 294.36 285.30 311.90 291.42 C 326.10 296.22 340.81 300.28 353.55 308.45 C 368.21 316.61 380.14 330.97 382.63 347.89 C 384.79 362.35 383.37 377.68 376.87 390.92 C 370.22 404.65 358.05 415.17 344.14 421.15 C 327.52 428.37 309.03 430.63 291.04 429.55 C 264.97 427.54 239.18 414.64 224.18 392.86 C 215.09 380.16 210.38 364.68 210.03 349.13 C 218.72 349.12 227.40 349.12 236.09 349.13 C 237.05 363.34 242.36 377.43 252.10 387.96 C 263.43 400.45 280.30 407.21 297.05 407.29 C 310.84 407.24 325.16 405.28 337.22 398.17 C 348.08 392.44 355.77 381.29 357.59 369.19 C 358.97 360.43 358.83 350.76 353.89 343.06 C 347.88 333.53 337.81 327.69 327.78 323.21 C 303.90 313.27 278.15 308.40 254.77 297.19 C 250.74 294.97 246.81 292.55 242.91 290.11 C 230.72 281.68 220.85 268.96 218.22 254.14 C 215.49 239.31 216.88 223.08 225.14 210.14 C 233.16 197.12 247.03 188.84 261.42 184.59 Z" />
</svg>
